<?xml version="1.0" encoding="UTF-8"?>
<!DOCTYPE svg PUBLIC "-//W3C//DTD SVG 1.1//EN" "http://www.w3.org/Graphics/SVG/1.1/DTD/svg11.dtd">
<svg xmlns="http://www.w3.org/2000/svg" version="1.1" width="126px" height="90px" style="shape-rendering:geometricPrecision; text-rendering:geometricPrecision; image-rendering:optimizeQuality; fill-rule:evenodd; clip-rule:evenodd" xmlns:xlink="http://www.w3.org/1999/xlink">
<g><path style="opacity:0.987" fill="#0ea8ad" d="M 99.5,14.5 C 100.708,15.2341 102.041,15.5674 103.5,15.5C 103.5,16.1667 103.833,16.5 104.5,16.5C 104.833,16.5 105.167,16.5 105.5,16.5C 107.419,18.8201 109.419,21.1534 111.5,23.5C 112.906,23.9731 113.573,24.9731 113.5,26.5C 114.59,39.4741 114.756,52.4741 114,65.5C 111.229,76.5932 104.062,82.0932 92.5,82C 69.1667,82.6667 45.8333,82.6667 22.5,82C 18.9382,81.2611 15.7716,79.7611 13,77.5C 12.3292,78.2524 11.4959,78.5858 10.5,78.5C 10.6107,77.8826 10.944,77.3826 11.5,77C 8.3431,73.8947 6.50977,70.0613 6,65.5C 5.50014,53.8381 5.33347,42.1714 5.5,30.5C 7.22452,27.3755 8.72452,24.0421 10,20.5C 12.9212,18.2879 16.0879,16.4545 19.5,15C 46.1646,14.5 72.8313,14.3334 99.5,14.5 Z"/></g>
<g><path style="opacity:0.004" fill="#000000" d="M 103.5,15.5 C 104.623,14.2426 105.289,14.5759 105.5,16.5C 105.167,16.5 104.833,16.5 104.5,16.5C 103.833,16.5 103.5,16.1667 103.5,15.5 Z"/></g>
<g><path style="opacity:0.153" fill="#1f2425" d="M 99.5,14.5 C 72.8313,14.3334 46.1646,14.5 19.5,15C 16.0879,16.4545 12.9212,18.2879 10,20.5C 8.72452,24.0421 7.22452,27.3755 5.5,30.5C 4.51658,34.2984 4.18325,38.2984 4.5,42.5C 3.88258,42.3893 3.38258,42.056 3,41.5C 2.33333,37.8333 2.33333,34.1667 3,30.5C 5.19388,27.4456 6.86055,24.1122 8,20.5C 11.2933,17.2131 15.1266,14.7131 19.5,13C 45.9503,12.5302 72.2837,12.3635 98.5,12.5C 99.2975,12.9569 99.6309,13.6236 99.5,14.5 Z"/></g>
<g><path style="opacity:0.043" fill="#252b28" d="M 105.5,16.5 C 108.971,17.6332 110.971,19.9666 111.5,23.5C 109.419,21.1534 107.419,18.8201 105.5,16.5 Z"/></g>
<g><path style="opacity:1" fill="#2d3034" d="M 22.5,22.5 C 48.5892,22.0183 74.5892,22.5183 100.5,24C 102,25.5 103.5,27 105,28.5C 105.667,41.5 105.667,54.5 105,67.5C 103.833,70 102,71.8333 99.5,73C 74.1763,74.2551 48.843,74.5885 23.5,74C 19.5013,73.3322 16.668,71.1655 15,67.5C 14.3333,54.8333 14.3333,42.1667 15,29.5C 16.211,25.6664 18.711,23.333 22.5,22.5 Z"/></g>
<g><path style="opacity:1" fill="#05abb1" d="M 30.5,27.5 C 42.8332,25.179 49.8332,30.179 51.5,42.5C 48.5279,53.9922 41.1946,58.3255 29.5,55.5C 29.6653,59.1817 29.4986,62.8484 29,66.5C 26.2368,69.288 23.9034,68.9547 22,65.5C 21.3333,55.8333 21.3333,46.1667 22,36.5C 24.3622,32.9734 27.1955,29.9734 30.5,27.5 Z"/></g>
<g><path style="opacity:1" fill="#08acaf" d="M 60.5,27.5 C 63.5184,27.3354 66.5184,27.502 69.5,28C 72.1667,30.3333 72.1667,32.6667 69.5,35C 66.1667,35.6667 62.8333,35.6667 59.5,35C 58.0825,32.2565 58.4159,29.7565 60.5,27.5 Z"/></g>
<g><path style="opacity:1" fill="#13abab" d="M 76.5,27.5 C 83.5079,27.3337 90.5079,27.5004 97.5,28C 100.319,30.7195 99.9855,33.0528 96.5,35C 89.8333,35.6667 83.1667,35.6667 76.5,35C 73.9142,32.506 73.9142,30.006 76.5,27.5 Z"/></g>
<g><path style="opacity:1" fill="#2d3034" d="M 32.5,35.5 C 35.2469,35.1866 37.9135,35.52 40.5,36.5C 44.3059,42.6873 42.6392,46.3539 35.5,47.5C 31.6555,47.1524 29.6555,44.9858 29.5,41C 30.1242,38.9149 31.1242,37.0816 32.5,35.5 Z"/></g>
<g><path style="opacity:1" fill="#07a9af" d="M 59.5,41.5 C 71.8378,41.3335 84.1712,41.5001 96.5,42C 99.859,44.0342 100.192,46.3676 97.5,49C 94.1832,49.4983 90.8499,49.665 87.5,49.5C 87.666,54.8437 87.4994,60.1771 87,65.5C 84.2841,69.4759 81.6174,69.4759 79,65.5C 78.5006,60.1771 78.334,54.8437 78.5,49.5C 72.1579,49.6662 65.8246,49.4995 59.5,49C 58.7069,47.9148 58.0402,46.7481 57.5,45.5C 58.6302,44.3777 59.2969,43.0443 59.5,41.5 Z"/></g>
<g><path style="opacity:1" fill="#0aa8ac" d="M 41.5,59.5 C 50.5062,59.3336 59.5062,59.5002 68.5,60C 72.3475,62.7045 72.3475,65.3712 68.5,68C 59.1667,68.6667 49.8333,68.6667 40.5,68C 37.8299,64.8385 38.1632,62.0052 41.5,59.5 Z"/></g>
<g><path style="opacity:1" fill="#0aabae" d="M 93.5,59.5 C 100.678,61.5152 101.178,64.5152 95,68.5C 90.9673,66.1638 90.4673,63.1638 93.5,59.5 Z"/></g>
<g><path style="opacity:0.035" fill="#1c3234" d="M 5.5,30.5 C 5.33347,42.1714 5.50014,53.8381 6,65.5C 6.50977,70.0613 8.3431,73.8947 11.5,77C 10.944,77.3826 10.6107,77.8826 10.5,78.5C 6.88923,75.0103 4.72256,70.6769 4,65.5C 3.35329,57.8106 3.51995,50.1439 4.5,42.5C 4.18325,38.2984 4.51658,34.2984 5.5,30.5 Z"/></g>
<g><path style="opacity:0.02" fill="#1e2022" d="M 113.5,26.5 C 115.085,27.4737 116.085,28.9737 116.5,31C 116.06,35.6313 115.727,40.298 115.5,45C 116.101,51.1942 116.768,57.3609 117.5,63.5C 115.95,67.6613 114.116,71.6613 112,75.5C 109.205,77.2932 106.705,79.4598 104.5,82C 97.9406,83.2554 91.274,83.9221 84.5,84C 64.5,84.6667 44.5,84.6667 24.5,84C 19.2358,83.3363 14.5691,81.503 10.5,78.5C 11.4959,78.5858 12.3292,78.2524 13,77.5C 15.7716,79.7611 18.9382,81.2611 22.5,82C 45.8333,82.6667 69.1667,82.6667 92.5,82C 104.062,82.0932 111.229,76.5932 114,65.5C 114.756,52.4741 114.59,39.4741 113.5,26.5 Z"/></g>
</svg>
